<mxfile host="app.diagrams.net" modified="2023-09-13T08:56:39.111Z" agent="Mozilla/5.0 (X11; Linux x86_64) AppleWebKit/537.36 (KHTML, like Gecko) Chrome/116.0.0.0 Safari/537.36" version="21.7.5" etag="fBcjCPCZpeKwh8xrg6K-" type="github">
  <diagram name="Page-1" id="Bm8a47Y0TEI5QcnQGzPg">
    <mxGraphModel>
      <root>
        <mxCell id="0" />
        <mxCell id="1" parent="0" />
      </root>
    </mxGraphModel>
  </diagram>
</mxfile>
